<?xml version="1.0" encoding="UTF-8"?><svg id="uuid-5c63999b-ef73-49ae-89bc-2ee2b3f5b8df" xmlns="http://www.w3.org/2000/svg" xmlns:xlink="http://www.w3.org/1999/xlink" viewBox="0 0 5.26 11.25"><defs><clipPath id="uuid-76f6dd3a-7c4e-46ae-a8c1-4b8795585c9f"><polyline points="0 0 0 11.24 5.25 11.25 5.26 0" style="fill:none;"/></clipPath><clipPath id="uuid-5d17d8d6-17d2-4c42-8338-a85bd092ad3c"><rect x="-2.99" y=".07" width="11.25" height="11.25" style="fill:none;"/></clipPath><clipPath id="uuid-0ed99975-dff9-43c0-b63e-436cdf9eb792"><rect x="-844.49" y="-3834.83" width="1133.86" height="4110.23" style="fill:none;"/></clipPath><clipPath id="uuid-53a064f2-528a-4f7d-b186-328eac6172af"><rect x="-844.47" y="-3834.85" width="1133.85" height="4110.24" style="fill:none;"/></clipPath></defs><g id="uuid-5bf4c101-21c8-4505-8ce3-ccf153d728c5"><g style="clip-path:url(#uuid-76f6dd3a-7c4e-46ae-a8c1-4b8795585c9f); fill:none;"><g style="clip-path:url(#uuid-5d17d8d6-17d2-4c42-8338-a85bd092ad3c); fill:none;"><g style="clip-path:url(#uuid-0ed99975-dff9-43c0-b63e-436cdf9eb792); fill:none;"><g style="clip-path:url(#uuid-53a064f2-528a-4f7d-b186-328eac6172af); fill:none;"><path d="m3.49,11.25H1.16s0-5.62,0-5.62H0s0-1.94,0-1.94h1.16s0-1.16,0-1.16C1.17.94,1.83,0,3.69,0h1.55s0,1.94,0,1.94h-.97c-.73,0-.78.27-.78.77v.97s1.76,0,1.76,0l-.21,1.94h-1.55s0,5.62,0,5.62" style="fill:#fff; fill-rule:evenodd;"/></g></g></g></g></g></svg>