<?xml version="1.0" encoding="UTF-8"?><svg id="uuid-360df1c2-47db-4088-8388-63a8b02d7b19" xmlns="http://www.w3.org/2000/svg" xmlns:xlink="http://www.w3.org/1999/xlink" viewBox="0 0 223.41 282.09"><defs><clipPath id="uuid-a5fae79a-c074-4a24-9dc2-cad2a3d0eb4e"><rect x="26.65" y="13.72" width="171.54" height="80.07" style="fill:none;"/></clipPath><clipPath id="uuid-b139b10f-eac3-425e-bf69-3030f1e621a5"><rect x="26.65" y="3.99" width="171.55" height="88.95" style="fill:none;"/></clipPath><clipPath id="uuid-8ae8e5ec-61a0-46cd-b2dc-8674bd134ccf"><rect x="-672.9" y="-3450.05" width="1133.86" height="4110.23" style="fill:none;"/></clipPath><clipPath id="uuid-0f743e09-417e-40b7-81ef-bd85018aeb67"><rect x="-672.89" y="-3450.07" width="1133.85" height="4110.24" style="fill:none;"/></clipPath></defs><g id="uuid-360adef8-a32c-4894-ab4f-38164f927b3e"><polyline points="223.41 0 223.41 96.28 129.57 96.28 129.57 154.27 86.85 154.27 86.85 215.77 25.34 154.27 0 154.27 0 0 223.41 0" style="fill:#ffcf01;"/><rect x="129.57" y="96.28" width="93.83" height="57.99" style="fill:#138397;"/><polyline points="223.41 154.27 223.41 239.14 180.45 282.09 180.45 239.14 129.57 239.14 129.57 154.27 223.41 154.27" style="fill:#0057a8;"/><g style="clip-path:url(#uuid-a5fae79a-c074-4a24-9dc2-cad2a3d0eb4e); fill:none;"><g style="clip-path:url(#uuid-b139b10f-eac3-425e-bf69-3030f1e621a5); fill:none;"><g style="clip-path:url(#uuid-8ae8e5ec-61a0-46cd-b2dc-8674bd134ccf); fill:none;"><g style="clip-path:url(#uuid-0f743e09-417e-40b7-81ef-bd85018aeb67); fill:none;"><path d="m75.97,35.39c-.91-.42-1.62-1-2.15-1.74-.52-.75-.8-1.58-.83-2.5h1.92c.09.88.48,1.66,1.17,2.33.69.67,1.71,1,3.04,1,1.23,0,2.21-.32,2.93-.95s1.08-1.43,1.08-2.41c0-.78-.2-1.41-.6-1.89-.4-.48-.89-.83-1.48-1.07-.59-.23-1.41-.49-2.45-.77-1.21-.33-2.18-.65-2.89-.96-.71-.31-1.32-.8-1.82-1.46s-.75-1.55-.75-2.68c0-.94.24-1.77.73-2.51s1.17-1.31,2.05-1.73c.88-.42,1.9-.62,3.04-.62,1.68,0,3.04.41,4.07,1.24,1.03.82,1.63,1.89,1.78,3.19h-1.98c-.12-.75-.53-1.41-1.22-1.99-.69-.58-1.63-.87-2.81-.87-1.09,0-2,.29-2.73.87-.73.58-1.09,1.37-1.09,2.38,0,.76.2,1.38.6,1.85.4.47.9.82,1.5,1.07.6.24,1.41.5,2.43.78,1.18.33,2.13.66,2.86.98.73.32,1.34.81,1.85,1.47s.75,1.54.75,2.65c0,.85-.23,1.66-.68,2.42-.45.76-1.12,1.38-2,1.85-.88.47-1.94.7-3.17.7s-2.25-.21-3.16-.62Z" style="fill:#0c1539;"/><path d="m88.81,24.87c.59-1.1,1.41-1.95,2.45-2.55,1.04-.6,2.23-.9,3.56-.9,1.75,0,3.2.43,4.33,1.3,1.14.87,1.87,2.05,2.2,3.54h-1.95c-.24-1.02-.77-1.83-1.57-2.41-.81-.58-1.81-.87-3-.87-.95,0-1.81.22-2.58.65s-1.37,1.08-1.81,1.94-.66,1.91-.66,3.16.22,2.31.66,3.17,1.04,1.52,1.81,1.95,1.62.65,2.58.65c1.2,0,2.2-.29,3-.87.81-.58,1.33-1.39,1.57-2.43h1.95c-.33,1.46-1.07,2.63-2.21,3.51-1.14.88-2.58,1.33-4.32,1.33-1.34,0-2.52-.3-3.56-.9-1.04-.6-1.86-1.45-2.45-2.55s-.88-2.39-.88-3.86.29-2.76.88-3.86Z" style="fill:#0c1539;"/><path d="m107.57,35.15c-1.07-.6-1.91-1.45-2.52-2.55s-.92-2.39-.92-3.86.31-2.76.94-3.86c.62-1.1,1.47-1.95,2.55-2.55,1.08-.6,2.28-.9,3.62-.9s2.54.3,3.63.9c1.08.6,1.93,1.45,2.55,2.55s.92,2.39.92,3.86-.31,2.74-.94,3.85c-.62,1.11-1.48,1.96-2.58,2.56-1.09.6-2.31.9-3.64.9s-2.54-.3-3.6-.9Zm6.2-1.33c.8-.42,1.44-1.07,1.94-1.92s.74-1.91.74-3.16-.24-2.3-.73-3.16-1.13-1.5-1.92-1.92-1.67-.64-2.6-.64-1.8.21-2.6.64-1.44,1.07-1.91,1.92-.71,1.91-.71,3.16.24,2.3.71,3.16,1.11,1.5,1.9,1.92c.79.42,1.65.64,2.59.64s1.8-.21,2.6-.64Z" style="fill:#0c1539;"/><path d="m125.86,22.37c.98-.63,2.15-.95,3.5-.95s2.44.3,3.47.9c1.03.6,1.84,1.45,2.42,2.55s.87,2.38.87,3.84-.29,2.74-.87,3.85-1.39,1.97-2.42,2.58c-1.03.61-2.19.91-3.47.91s-2.5-.32-3.49-.95c-.99-.63-1.71-1.43-2.16-2.38v9.83h-1.79v-20.91h1.79v3.12c.45-.95,1.17-1.75,2.15-2.38Zm7.73,3.28c-.46-.86-1.09-1.51-1.89-1.96s-1.7-.68-2.71-.68-1.86.23-2.67.7c-.81.47-1.44,1.14-1.91,2s-.7,1.87-.7,3.02.23,2.15.7,3.02,1.11,1.54,1.91,2c.81.47,1.69.7,2.67.7s1.91-.23,2.71-.69c.8-.46,1.43-1.13,1.89-2,.46-.88.69-1.89.69-3.06s-.23-2.2-.69-3.06Z" style="fill:#0c1539;"/><path d="m152.54,29.44h-11.78c.05,1.08.31,1.99.78,2.76.47.76,1.08,1.34,1.85,1.73.76.39,1.59.59,2.5.59,1.18,0,2.17-.29,2.98-.86s1.34-1.34,1.6-2.32h1.92c-.35,1.39-1.09,2.52-2.22,3.39-1.14.88-2.56,1.31-4.28,1.31-1.34,0-2.53-.3-3.59-.9-1.06-.6-1.89-1.45-2.48-2.55-.6-1.1-.9-2.39-.9-3.86s.29-2.77.88-3.88c.59-1.11,1.41-1.96,2.47-2.55,1.06-.59,2.26-.88,3.62-.88s2.54.29,3.55.88c1.01.59,1.79,1.38,2.34,2.38.55,1,.82,2.1.82,3.32,0,.62-.02,1.1-.05,1.43Zm-2.43-4.19c-.44-.75-1.04-1.31-1.81-1.69s-1.6-.57-2.5-.57c-1.35,0-2.51.43-3.46,1.3-.95.87-1.48,2.09-1.59,3.67h9.99c.02-1.06-.2-1.96-.64-2.71Z" style="fill:#0c1539;"/><path d="m68.8,59.4v1.04h-8.69v8.03h7.59v1.04h-7.59v9.13h-1.23v-19.24h9.92Z" style="fill:#0c1539;"/><path d="m71.1,60.15c-.2-.19-.3-.45-.3-.78,0-.31.1-.57.3-.77.2-.2.45-.3.74-.3s.54.1.74.3.3.46.3.77c0,.33-.1.59-.3.78s-.45.29-.74.29-.54-.1-.74-.29Zm1.34,3.6v14.88h-1.23v-14.88h1.23Z" style="fill:#0c1539;"/><path d="m87.16,65.09c1.11,1.09,1.67,2.7,1.67,4.84v8.71h-1.21v-8.63c0-1.77-.45-3.13-1.34-4.07-.9-.94-2.11-1.41-3.64-1.41s-2.89.51-3.85,1.53c-.96,1.02-1.44,2.54-1.44,4.55v8.03h-1.23v-14.88h1.23v3.15c.42-1.11,1.12-1.97,2.1-2.56.98-.59,2.11-.89,3.38-.89,1.77,0,3.22.54,4.33,1.63Z" style="fill:#0c1539;"/><path d="m92.49,67.15c.61-1.15,1.46-2.04,2.55-2.66s2.33-.93,3.71-.93c1.57,0,2.9.38,4,1.15,1.1.77,1.86,1.75,2.3,2.93v-3.89h1.23v14.88h-1.23v-3.92c-.44,1.21-1.21,2.2-2.32,2.97-1.11.78-2.43,1.16-3.99,1.16-1.39,0-2.63-.31-3.71-.95-1.09-.63-1.94-1.52-2.55-2.69-.61-1.16-.92-2.51-.92-4.04s.31-2.88.92-4.03Zm11.76.59c-.54-1-1.27-1.76-2.21-2.3s-1.97-.81-3.12-.81-2.27.26-3.18.78c-.91.52-1.63,1.27-2.14,2.26-.51.99-.77,2.16-.77,3.51s.26,2.52.77,3.51c.51.99,1.23,1.75,2.15,2.27.92.53,1.98.79,3.17.79s2.2-.27,3.14-.81c.94-.54,1.68-1.31,2.21-2.3.53-1,.79-2.15.79-3.47s-.27-2.44-.81-3.44Z" style="fill:#0c1539;"/><path d="m120.98,65.09c1.11,1.09,1.67,2.7,1.67,4.84v8.71h-1.21v-8.63c0-1.77-.45-3.13-1.34-4.07-.9-.94-2.11-1.41-3.64-1.41s-2.89.51-3.85,1.53c-.96,1.02-1.44,2.54-1.44,4.55v8.03h-1.23v-14.88h1.23v3.15c.42-1.11,1.12-1.97,2.1-2.56.98-.59,2.11-.89,3.38-.89,1.77,0,3.22.54,4.33,1.63Z" style="fill:#0c1539;"/><path d="m126.31,67.13c.61-1.15,1.46-2.03,2.55-2.64s2.33-.92,3.74-.92c1.86,0,3.39.47,4.59,1.4s1.94,2.18,2.23,3.75h-1.29c-.24-1.28-.85-2.28-1.85-3.01s-2.22-1.1-3.69-1.1c-1.1,0-2.09.24-2.99.73-.9.48-1.61,1.22-2.15,2.22s-.81,2.21-.81,3.63.27,2.66.81,3.64c.54.99,1.26,1.73,2.15,2.22.89.49,1.89.74,2.99.74,1.46,0,2.69-.37,3.69-1.1s1.61-1.74,1.85-3.01h1.29c-.29,1.55-1.04,2.8-2.25,3.75-1.21.95-2.73,1.42-4.58,1.42-1.41,0-2.65-.31-3.74-.93-1.09-.62-1.94-1.51-2.55-2.67-.61-1.16-.92-2.52-.92-4.07s.31-2.91.92-4.06Z" style="fill:#0c1539;"/><path d="m142.21,60.15c-.2-.19-.3-.45-.3-.78,0-.31.1-.57.3-.77.2-.2.45-.3.74-.3s.54.1.74.3.3.46.3.77c0,.33-.1.59-.3.78s-.45.29-.74.29-.54-.1-.74-.29Zm1.34,3.6v14.88h-1.23v-14.88h1.23Z" style="fill:#0c1539;"/><path d="m147.38,67.15c.61-1.15,1.46-2.04,2.55-2.66s2.33-.93,3.71-.93c1.57,0,2.9.38,4,1.15,1.1.77,1.86,1.75,2.3,2.93v-3.89h1.23v14.88h-1.23v-3.92c-.44,1.21-1.21,2.2-2.32,2.97-1.11.78-2.43,1.16-3.99,1.16-1.39,0-2.63-.31-3.71-.95-1.09-.63-1.94-1.52-2.55-2.69-.61-1.16-.92-2.51-.92-4.04s.31-2.88.92-4.03Zm11.76.59c-.54-1-1.27-1.76-2.21-2.3s-1.97-.81-3.12-.81-2.27.26-3.18.78c-.91.52-1.63,1.27-2.14,2.26-.51.99-.77,2.16-.77,3.51s.26,2.52.77,3.51c.51.99,1.23,1.75,2.15,2.27.92.53,1.98.79,3.17.79s2.2-.27,3.14-.81c.94-.54,1.68-1.31,2.21-2.3.53-1,.79-2.15.79-3.47s-.27-2.44-.81-3.44Z" style="fill:#0c1539;"/><path d="m166.06,58.36v20.28h-1.23v-20.28h1.23Z" style="fill:#0c1539;"/><rect x="108.96" y="44.83" width="7.15" height="7.15" transform="translate(-1.26 93.75) rotate(-45)" style="fill:none; stroke:#0c1539; stroke-miterlimit:10; stroke-width:.7px;"/><line x1="26.65" y1="48.64" x2="99.97" y2="48.64" style="fill:none; stroke:#0c1539; stroke-miterlimit:10; stroke-width:.7px;"/><line x1="124.87" y1="48.64" x2="198.19" y2="48.64" style="fill:none; stroke:#0c1539; stroke-miterlimit:10; stroke-width:.7px;"/></g></g></g></g></g></svg>