<?xml version="1.0" encoding="UTF-8"?><svg id="uuid-27c35382-0c7d-47ff-a40d-026dd5f9aab6" xmlns="http://www.w3.org/2000/svg" xmlns:xlink="http://www.w3.org/1999/xlink" viewBox="0 0 12.87 12.85"><defs><clipPath id="uuid-5d2cfd93-224a-4acb-9e30-b707ede09298"><polyline points="0 .32 .32 12.85 12.87 12.53 12.55 0" style="fill:none;"/></clipPath><clipPath id="uuid-3c454932-a33c-4092-a6db-b062d679e7c1"><rect x=".2" y=".44" width="12.24" height="12.24" style="fill:none;"/></clipPath><clipPath id="uuid-6a09b675-29c1-471d-932a-6184056cbd61"><rect x="-842.18" y="-3880.67" width="1133.86" height="4110.23" style="fill:none;"/></clipPath><clipPath id="uuid-e6216e42-4838-4429-b97a-a97bb2c72d9f"><rect x="-842.17" y="-3880.69" width="1133.85" height="4110.24" style="fill:none;"/></clipPath></defs><g id="uuid-258b1c55-6253-49bd-bb8c-952bb30e32fd"><g style="clip-path:url(#uuid-5d2cfd93-224a-4acb-9e30-b707ede09298); fill:none;"><g style="clip-path:url(#uuid-3c454932-a33c-4092-a6db-b062d679e7c1); fill:none;"><g style="clip-path:url(#uuid-6a09b675-29c1-471d-932a-6184056cbd61); fill:none;"><g style="clip-path:url(#uuid-e6216e42-4838-4429-b97a-a97bb2c72d9f); fill:none;"><path d="m.31,4.47l2.6-.07.21,8.37-2.6.07-.21-8.37M1.51.28c.83-.02,1.52.64,1.55,1.47.02.83-.64,1.53-1.47,1.55C.75,3.32.06,2.66.04,1.83.02.99.67.3,1.51.28" style="fill:#fff;"/><path d="m4.55,4.37l2.5-.06.03,1.14h.04c.33-.67,1.16-1.38,2.43-1.41,2.63-.07,3.16,1.65,3.22,3.91l.12,4.59-2.6.07-.1-4.07c-.02-.97-.07-2.22-1.41-2.19-1.35.03-1.53,1.1-1.51,2.19l.1,4.14-2.6.07-.21-8.37" style="fill:#fff;"/></g></g></g></g></g></svg>