<?xml version="1.0" encoding="UTF-8"?><svg id="uuid-03f22270-e2f2-4f14-b0ce-ce071ed69912" xmlns="http://www.w3.org/2000/svg" xmlns:xlink="http://www.w3.org/1999/xlink" viewBox="0 0 7.56 10.01"><defs><clipPath id="uuid-4c8fb254-1c2c-48d2-8ed2-332676488aa9"><polyline points="0 .19 .25 10.01 7.56 9.82 7.31 0" style="fill:none;"/></clipPath><clipPath id="uuid-dd85039a-e52f-43be-a427-36112440bb3b"><rect x="-1.33" y="-.05" width="10.24" height="10.24" style="fill:none;"/></clipPath><clipPath id="uuid-1762d7f0-8913-47ac-bccb-866c8a4a3f95"><rect x="-843.83" y="-3858.52" width="1133.86" height="4110.23" style="fill:none;"/></clipPath><clipPath id="uuid-a2b88b87-29d3-4f7e-bacc-03f6baecd755"><rect x="-843.82" y="-3858.54" width="1133.85" height="4110.24" style="fill:none;"/></clipPath></defs><g id="uuid-16f1af26-17ba-4216-940a-b38c04024ce6"><g style="clip-path:url(#uuid-4c8fb254-1c2c-48d2-8ed2-332676488aa9); fill:none;"><g style="clip-path:url(#uuid-dd85039a-e52f-43be-a427-36112440bb3b); fill:none;"><g style="clip-path:url(#uuid-1762d7f0-8913-47ac-bccb-866c8a4a3f95); fill:none;"><g style="clip-path:url(#uuid-a2b88b87-29d3-4f7e-bacc-03f6baecd755); fill:none;"><path d="m7.5,8.6c0,.34-.11.64-.34.89-.29.25-.7.35-1.18.35-.72.02-1.86.15-3.01-.05-.42-.07-1.01-.42-1.25-.58-.9-.6-1.53-1.67-1.56-2.81L.03,1.43C.03.68.54.18,1.2.15c.34,0,.64.11.89.34.25.24.38.53.39.87l.03,1.25,3.54-.09c1.68-.04,1.89,2.39.06,2.43l-3.56.09.03,1.29c.19,1.01.94,1.13,1.73,1.07.68.02,1.4-.02,1.58-.02.88-.14,1.54.27,1.6,1.21" style="fill:#fff; fill-rule:evenodd;"/></g></g></g></g></g></svg>